<mxfile host="app.diagrams.net" modified="2023-05-20T17:01:42.937Z" agent="Mozilla/5.0 (Macintosh; Intel Mac OS X 10_15_7) AppleWebKit/605.1.15 (KHTML, like Gecko) Version/16.4 Safari/605.1.15" etag="v_FvJ5xk6YeB_56yhLyo" version="21.3.2" type="device">
  <diagram id="R2lEEEUBdFMjLlhIrx00" name="Page-1">
    <mxGraphModel dx="954" dy="685" grid="1" gridSize="10" guides="1" tooltips="1" connect="1" arrows="1" fold="1" page="1" pageScale="1" pageWidth="850" pageHeight="1100" math="0" shadow="0" extFonts="Permanent Marker^https://fonts.googleapis.com/css?family=Permanent+Marker">
      <root>
        <mxCell id="0" />
        <mxCell id="1" parent="0" />
        <mxCell id="7HfnvCUrbNojlMPrx9GS-21" value="user" style="rounded=1;arcSize=10;whiteSpace=wrap;html=1;align=center;" parent="1" vertex="1">
          <mxGeometry x="130" y="470" width="100" height="40" as="geometry" />
        </mxCell>
        <mxCell id="7HfnvCUrbNojlMPrx9GS-22" value="&lt;div&gt;id_code&lt;/div&gt;" style="ellipse;whiteSpace=wrap;html=1;align=center;fontStyle=4;" parent="1" vertex="1">
          <mxGeometry x="350" y="540" width="100" height="40" as="geometry" />
        </mxCell>
        <mxCell id="7HfnvCUrbNojlMPrx9GS-23" value="price" style="ellipse;whiteSpace=wrap;html=1;align=center;" parent="1" vertex="1">
          <mxGeometry x="670" y="530" width="100" height="40" as="geometry" />
        </mxCell>
        <mxCell id="7HfnvCUrbNojlMPrx9GS-24" value="image" style="ellipse;whiteSpace=wrap;html=1;align=center;" parent="1" vertex="1">
          <mxGeometry x="630" y="580" width="100" height="40" as="geometry" />
        </mxCell>
        <mxCell id="7HfnvCUrbNojlMPrx9GS-25" value="description" style="ellipse;whiteSpace=wrap;html=1;align=center;" parent="1" vertex="1">
          <mxGeometry x="530" y="600" width="100" height="40" as="geometry" />
        </mxCell>
        <mxCell id="7HfnvCUrbNojlMPrx9GS-26" value="name" style="ellipse;whiteSpace=wrap;html=1;align=center;" parent="1" vertex="1">
          <mxGeometry x="670" y="470" width="100" height="40" as="geometry" />
        </mxCell>
        <mxCell id="7HfnvCUrbNojlMPrx9GS-33" value="contain" style="shape=rhombus;perimeter=rhombusPerimeter;whiteSpace=wrap;html=1;align=center;" parent="1" vertex="1">
          <mxGeometry x="470" y="310" width="120" height="60" as="geometry" />
        </mxCell>
        <mxCell id="7HfnvCUrbNojlMPrx9GS-38" value="" style="endArrow=none;html=1;rounded=0;exitX=0.5;exitY=1;exitDx=0;exitDy=0;" parent="1" target="7HfnvCUrbNojlMPrx9GS-33" edge="1">
          <mxGeometry relative="1" as="geometry">
            <mxPoint x="530" y="200" as="sourcePoint" />
            <mxPoint x="500" y="440" as="targetPoint" />
          </mxGeometry>
        </mxCell>
        <mxCell id="7HfnvCUrbNojlMPrx9GS-39" value="(1,n)" style="text;html=1;align=center;verticalAlign=middle;resizable=0;points=[];autosize=1;strokeColor=none;fillColor=none;" parent="1" vertex="1">
          <mxGeometry x="520" y="200" width="50" height="30" as="geometry" />
        </mxCell>
        <mxCell id="7HfnvCUrbNojlMPrx9GS-41" value="" style="endArrow=none;html=1;rounded=0;entryX=0.5;entryY=1;entryDx=0;entryDy=0;exitX=0.5;exitY=0;exitDx=0;exitDy=0;" parent="1" target="7HfnvCUrbNojlMPrx9GS-33" edge="1">
          <mxGeometry relative="1" as="geometry">
            <mxPoint x="530" y="470" as="sourcePoint" />
            <mxPoint x="500" y="440" as="targetPoint" />
          </mxGeometry>
        </mxCell>
        <mxCell id="7HfnvCUrbNojlMPrx9GS-42" value="(0,1)" style="text;html=1;align=center;verticalAlign=middle;resizable=0;points=[];autosize=1;strokeColor=none;fillColor=none;" parent="1" vertex="1">
          <mxGeometry x="520" y="445" width="50" height="30" as="geometry" />
        </mxCell>
        <mxCell id="7HfnvCUrbNojlMPrx9GS-45" value="amount" style="ellipse;whiteSpace=wrap;html=1;align=center;" parent="1" vertex="1">
          <mxGeometry x="10" y="80" width="100" height="40" as="geometry" />
        </mxCell>
        <mxCell id="7HfnvCUrbNojlMPrx9GS-46" value="availability" style="ellipse;whiteSpace=wrap;html=1;align=center;" parent="1" vertex="1">
          <mxGeometry x="425" y="600" width="100" height="40" as="geometry" />
        </mxCell>
        <mxCell id="7HfnvCUrbNojlMPrx9GS-47" value="&lt;div&gt;expiry_date_time&lt;/div&gt;" style="ellipse;whiteSpace=wrap;html=1;align=center;" parent="1" vertex="1">
          <mxGeometry x="460" y="60" width="100" height="40" as="geometry" />
        </mxCell>
        <mxCell id="7HfnvCUrbNojlMPrx9GS-48" value="closed" style="ellipse;whiteSpace=wrap;html=1;align=center;" parent="1" vertex="1">
          <mxGeometry x="640" y="220" width="100" height="40" as="geometry" />
        </mxCell>
        <mxCell id="7HfnvCUrbNojlMPrx9GS-49" value="minimum_offset" style="ellipse;whiteSpace=wrap;html=1;align=center;" parent="1" vertex="1">
          <mxGeometry x="580" y="60" width="100" height="40" as="geometry" />
        </mxCell>
        <mxCell id="7HfnvCUrbNojlMPrx9GS-50" value="opened" style="ellipse;whiteSpace=wrap;html=1;align=center;" parent="1" vertex="1">
          <mxGeometry x="640" y="160" width="100" height="40" as="geometry" />
        </mxCell>
        <mxCell id="7HfnvCUrbNojlMPrx9GS-52" value="&lt;div&gt;address&lt;/div&gt;" style="ellipse;whiteSpace=wrap;html=1;align=center;" parent="1" vertex="1">
          <mxGeometry x="150" y="540" width="100" height="40" as="geometry" />
        </mxCell>
        <mxCell id="7HfnvCUrbNojlMPrx9GS-56" value="username" style="ellipse;whiteSpace=wrap;html=1;align=center;fontStyle=4;" parent="1" vertex="1">
          <mxGeometry x="20" y="440" width="100" height="40" as="geometry" />
        </mxCell>
        <mxCell id="7HfnvCUrbNojlMPrx9GS-57" value="recieves" style="shape=rhombus;perimeter=rhombusPerimeter;whiteSpace=wrap;html=1;align=center;" parent="1" vertex="1">
          <mxGeometry x="300" y="150" width="120" height="60" as="geometry" />
        </mxCell>
        <mxCell id="7HfnvCUrbNojlMPrx9GS-58" value="makes" style="shape=rhombus;perimeter=rhombusPerimeter;whiteSpace=wrap;html=1;align=center;" parent="1" vertex="1">
          <mxGeometry x="120" y="310" width="120" height="60" as="geometry" />
        </mxCell>
        <mxCell id="7HfnvCUrbNojlMPrx9GS-59" value="" style="endArrow=none;html=1;rounded=0;" parent="1" source="7HfnvCUrbNojlMPrx9GS-21" target="7HfnvCUrbNojlMPrx9GS-52" edge="1">
          <mxGeometry relative="1" as="geometry">
            <mxPoint x="340" y="350" as="sourcePoint" />
            <mxPoint x="500" y="350" as="targetPoint" />
          </mxGeometry>
        </mxCell>
        <mxCell id="7HfnvCUrbNojlMPrx9GS-60" value="" style="endArrow=none;html=1;rounded=0;entryX=0.5;entryY=1;entryDx=0;entryDy=0;" parent="1" source="7HfnvCUrbNojlMPrx9GS-21" target="7HfnvCUrbNojlMPrx9GS-58" edge="1">
          <mxGeometry relative="1" as="geometry">
            <mxPoint x="340" y="350" as="sourcePoint" />
            <mxPoint x="500" y="350" as="targetPoint" />
          </mxGeometry>
        </mxCell>
        <mxCell id="7HfnvCUrbNojlMPrx9GS-63" value="" style="endArrow=none;html=1;rounded=0;" parent="1" target="7HfnvCUrbNojlMPrx9GS-57" edge="1">
          <mxGeometry relative="1" as="geometry">
            <mxPoint x="480" y="180" as="sourcePoint" />
            <mxPoint x="500" y="350" as="targetPoint" />
          </mxGeometry>
        </mxCell>
        <mxCell id="7HfnvCUrbNojlMPrx9GS-65" value="" style="endArrow=none;html=1;rounded=0;" parent="1" source="7HfnvCUrbNojlMPrx9GS-49" edge="1">
          <mxGeometry relative="1" as="geometry">
            <mxPoint x="340" y="350" as="sourcePoint" />
            <mxPoint x="550" y="160" as="targetPoint" />
          </mxGeometry>
        </mxCell>
        <mxCell id="7HfnvCUrbNojlMPrx9GS-66" value="" style="endArrow=none;html=1;rounded=0;" parent="1" source="7HfnvCUrbNojlMPrx9GS-47" edge="1">
          <mxGeometry relative="1" as="geometry">
            <mxPoint x="340" y="350" as="sourcePoint" />
            <mxPoint x="526" y="160" as="targetPoint" />
          </mxGeometry>
        </mxCell>
        <mxCell id="7HfnvCUrbNojlMPrx9GS-67" value="" style="endArrow=none;html=1;rounded=0;" parent="1" source="7HfnvCUrbNojlMPrx9GS-50" edge="1">
          <mxGeometry relative="1" as="geometry">
            <mxPoint x="340" y="350" as="sourcePoint" />
            <mxPoint x="580" y="180" as="targetPoint" />
          </mxGeometry>
        </mxCell>
        <mxCell id="7HfnvCUrbNojlMPrx9GS-68" value="" style="endArrow=none;html=1;rounded=0;" parent="1" source="7HfnvCUrbNojlMPrx9GS-48" edge="1">
          <mxGeometry relative="1" as="geometry">
            <mxPoint x="340" y="350" as="sourcePoint" />
            <mxPoint x="580" y="198.75" as="targetPoint" />
          </mxGeometry>
        </mxCell>
        <mxCell id="7HfnvCUrbNojlMPrx9GS-75" value="" style="endArrow=none;html=1;rounded=0;" parent="1" source="7HfnvCUrbNojlMPrx9GS-21" target="7HfnvCUrbNojlMPrx9GS-56" edge="1">
          <mxGeometry relative="1" as="geometry">
            <mxPoint x="340" y="360" as="sourcePoint" />
            <mxPoint x="500" y="360" as="targetPoint" />
          </mxGeometry>
        </mxCell>
        <mxCell id="7HfnvCUrbNojlMPrx9GS-77" value="(1,n)" style="text;html=1;align=center;verticalAlign=middle;resizable=0;points=[];autosize=1;strokeColor=none;fillColor=none;" parent="1" vertex="1">
          <mxGeometry x="170" y="420" width="50" height="30" as="geometry" />
        </mxCell>
        <mxCell id="7HfnvCUrbNojlMPrx9GS-80" value="(1,1)" style="text;html=1;align=center;verticalAlign=middle;resizable=0;points=[];autosize=1;strokeColor=none;fillColor=none;" parent="1" vertex="1">
          <mxGeometry x="175" y="208" width="50" height="30" as="geometry" />
        </mxCell>
        <mxCell id="7HfnvCUrbNojlMPrx9GS-81" value="(1,1)" style="text;html=1;align=center;verticalAlign=middle;resizable=0;points=[];autosize=1;strokeColor=none;fillColor=none;" parent="1" vertex="1">
          <mxGeometry x="240" y="150" width="50" height="30" as="geometry" />
        </mxCell>
        <mxCell id="7HfnvCUrbNojlMPrx9GS-84" value="(1,n)" style="text;html=1;align=center;verticalAlign=middle;resizable=0;points=[];autosize=1;strokeColor=none;fillColor=none;" parent="1" vertex="1">
          <mxGeometry x="440" y="150" width="50" height="30" as="geometry" />
        </mxCell>
        <mxCell id="7G_2wvaFVIAPsDN2uyOu-1" value="creates" style="shape=rhombus;perimeter=rhombusPerimeter;whiteSpace=wrap;html=1;align=center;" parent="1" vertex="1">
          <mxGeometry x="300" y="310" width="120" height="60" as="geometry" />
        </mxCell>
        <mxCell id="7G_2wvaFVIAPsDN2uyOu-2" value="" style="endArrow=none;html=1;rounded=0;" parent="1" source="7G_2wvaFVIAPsDN2uyOu-1" edge="1">
          <mxGeometry relative="1" as="geometry">
            <mxPoint x="340" y="440" as="sourcePoint" />
            <mxPoint x="508.75" y="200" as="targetPoint" />
          </mxGeometry>
        </mxCell>
        <mxCell id="7G_2wvaFVIAPsDN2uyOu-3" value="" style="endArrow=none;html=1;rounded=0;" parent="1" source="7HfnvCUrbNojlMPrx9GS-21" target="7G_2wvaFVIAPsDN2uyOu-1" edge="1">
          <mxGeometry relative="1" as="geometry">
            <mxPoint x="340" y="440" as="sourcePoint" />
            <mxPoint x="500" y="440" as="targetPoint" />
          </mxGeometry>
        </mxCell>
        <mxCell id="7G_2wvaFVIAPsDN2uyOu-4" value="(1,n)" style="text;html=1;align=center;verticalAlign=middle;resizable=0;points=[];autosize=1;strokeColor=none;fillColor=none;" parent="1" vertex="1">
          <mxGeometry x="215" y="448" width="50" height="30" as="geometry" />
        </mxCell>
        <mxCell id="7G_2wvaFVIAPsDN2uyOu-5" value="(1,1)" style="text;html=1;align=center;verticalAlign=middle;resizable=0;points=[];autosize=1;strokeColor=none;fillColor=none;" parent="1" vertex="1">
          <mxGeometry x="475" y="208" width="50" height="30" as="geometry" />
        </mxCell>
        <mxCell id="XF9pPEfib6T8cZuwT7Qb-1" value="auction" style="shape=ext;margin=3;double=1;whiteSpace=wrap;html=1;align=center;" parent="1" vertex="1">
          <mxGeometry x="480" y="160" width="100" height="40" as="geometry" />
        </mxCell>
        <mxCell id="XF9pPEfib6T8cZuwT7Qb-2" value="bid" style="shape=ext;margin=3;double=1;whiteSpace=wrap;html=1;align=center;" parent="1" vertex="1">
          <mxGeometry x="130" y="160" width="100" height="40" as="geometry" />
        </mxCell>
        <mxCell id="XF9pPEfib6T8cZuwT7Qb-4" value="" style="endArrow=none;html=1;rounded=0;" parent="1" source="XF9pPEfib6T8cZuwT7Qb-2" target="7HfnvCUrbNojlMPrx9GS-57" edge="1">
          <mxGeometry relative="1" as="geometry">
            <mxPoint x="340" y="440" as="sourcePoint" />
            <mxPoint x="500" y="440" as="targetPoint" />
          </mxGeometry>
        </mxCell>
        <mxCell id="XF9pPEfib6T8cZuwT7Qb-5" value="" style="endArrow=none;html=1;rounded=0;" parent="1" source="XF9pPEfib6T8cZuwT7Qb-2" target="7HfnvCUrbNojlMPrx9GS-45" edge="1">
          <mxGeometry relative="1" as="geometry">
            <mxPoint x="300" y="420" as="sourcePoint" />
            <mxPoint x="460" y="420" as="targetPoint" />
          </mxGeometry>
        </mxCell>
        <mxCell id="XF9pPEfib6T8cZuwT7Qb-9" value="" style="endArrow=none;html=1;rounded=0;" parent="1" source="XF9pPEfib6T8cZuwT7Qb-2" target="7HfnvCUrbNojlMPrx9GS-58" edge="1">
          <mxGeometry relative="1" as="geometry">
            <mxPoint x="340" y="440" as="sourcePoint" />
            <mxPoint x="500" y="440" as="targetPoint" />
          </mxGeometry>
        </mxCell>
        <mxCell id="c4wr8UN3cmUsFIl1r9Jv-1" value="&lt;span style=&quot;border-bottom: 1px dotted&quot;&gt;id_code&lt;/span&gt;" style="ellipse;whiteSpace=wrap;html=1;align=center;" parent="1" vertex="1">
          <mxGeometry x="340" y="230" width="100" height="40" as="geometry" />
        </mxCell>
        <mxCell id="c4wr8UN3cmUsFIl1r9Jv-2" value="&lt;span style=&quot;border-bottom: 1px dotted&quot;&gt;date_time&lt;/span&gt;" style="ellipse;whiteSpace=wrap;html=1;align=center;" parent="1" vertex="1">
          <mxGeometry x="160" y="20" width="100" height="40" as="geometry" />
        </mxCell>
        <mxCell id="c4wr8UN3cmUsFIl1r9Jv-4" value="" style="endArrow=none;html=1;rounded=0;" parent="1" source="c4wr8UN3cmUsFIl1r9Jv-1" target="XF9pPEfib6T8cZuwT7Qb-1" edge="1">
          <mxGeometry relative="1" as="geometry">
            <mxPoint x="340" y="440" as="sourcePoint" />
            <mxPoint x="500" y="440" as="targetPoint" />
          </mxGeometry>
        </mxCell>
        <mxCell id="c4wr8UN3cmUsFIl1r9Jv-5" value="" style="endArrow=none;html=1;rounded=0;" parent="1" source="c4wr8UN3cmUsFIl1r9Jv-2" target="XF9pPEfib6T8cZuwT7Qb-2" edge="1">
          <mxGeometry relative="1" as="geometry">
            <mxPoint x="340" y="440" as="sourcePoint" />
            <mxPoint x="500" y="440" as="targetPoint" />
          </mxGeometry>
        </mxCell>
        <mxCell id="c4wr8UN3cmUsFIl1r9Jv-7" value="" style="endArrow=none;html=1;rounded=0;" parent="1" edge="1">
          <mxGeometry relative="1" as="geometry">
            <mxPoint x="180" y="260" as="sourcePoint" />
            <mxPoint x="120" y="80" as="targetPoint" />
            <Array as="points">
              <mxPoint x="240" y="260" />
              <mxPoint x="240" y="80" />
            </Array>
          </mxGeometry>
        </mxCell>
        <mxCell id="c4wr8UN3cmUsFIl1r9Jv-10" value="" style="endArrow=none;html=1;rounded=0;" parent="1" edge="1">
          <mxGeometry relative="1" as="geometry">
            <mxPoint x="430" y="200" as="sourcePoint" />
            <mxPoint x="490" y="260" as="targetPoint" />
          </mxGeometry>
        </mxCell>
        <mxCell id="EV_kONMlF-djutW4qRMt-1" value="owns" style="shape=rhombus;perimeter=rhombusPerimeter;whiteSpace=wrap;html=1;align=center;" parent="1" vertex="1">
          <mxGeometry x="300" y="460" width="120" height="60" as="geometry" />
        </mxCell>
        <mxCell id="EV_kONMlF-djutW4qRMt-2" value="" style="endArrow=none;html=1;rounded=0;" parent="1" source="7HfnvCUrbNojlMPrx9GS-21" target="EV_kONMlF-djutW4qRMt-1" edge="1">
          <mxGeometry relative="1" as="geometry">
            <mxPoint x="340" y="440" as="sourcePoint" />
            <mxPoint x="500" y="440" as="targetPoint" />
          </mxGeometry>
        </mxCell>
        <mxCell id="EV_kONMlF-djutW4qRMt-3" value="" style="endArrow=none;html=1;rounded=0;" parent="1" source="EV_kONMlF-djutW4qRMt-1" edge="1">
          <mxGeometry relative="1" as="geometry">
            <mxPoint x="340" y="440" as="sourcePoint" />
            <mxPoint x="480" y="490" as="targetPoint" />
          </mxGeometry>
        </mxCell>
        <mxCell id="EV_kONMlF-djutW4qRMt-4" value="(1,1)" style="text;html=1;align=center;verticalAlign=middle;resizable=0;points=[];autosize=1;strokeColor=none;fillColor=none;" parent="1" vertex="1">
          <mxGeometry x="435" y="458" width="50" height="30" as="geometry" />
        </mxCell>
        <mxCell id="EV_kONMlF-djutW4qRMt-5" value="(1,n)" style="text;html=1;align=center;verticalAlign=middle;resizable=0;points=[];autosize=1;strokeColor=none;fillColor=none;" parent="1" vertex="1">
          <mxGeometry x="225" y="490" width="50" height="30" as="geometry" />
        </mxCell>
        <mxCell id="EV_kONMlF-djutW4qRMt-6" value="item" style="shape=ext;margin=3;double=1;whiteSpace=wrap;html=1;align=center;" parent="1" vertex="1">
          <mxGeometry x="480" y="470" width="100" height="40" as="geometry" />
        </mxCell>
        <mxCell id="EV_kONMlF-djutW4qRMt-8" value="" style="endArrow=none;html=1;rounded=0;" parent="1" source="7HfnvCUrbNojlMPrx9GS-22" target="EV_kONMlF-djutW4qRMt-6" edge="1">
          <mxGeometry relative="1" as="geometry">
            <mxPoint x="340" y="440" as="sourcePoint" />
            <mxPoint x="500" y="440" as="targetPoint" />
          </mxGeometry>
        </mxCell>
        <mxCell id="EV_kONMlF-djutW4qRMt-9" value="" style="endArrow=none;html=1;rounded=0;" parent="1" source="7HfnvCUrbNojlMPrx9GS-26" target="EV_kONMlF-djutW4qRMt-6" edge="1">
          <mxGeometry relative="1" as="geometry">
            <mxPoint x="340" y="440" as="sourcePoint" />
            <mxPoint x="500" y="440" as="targetPoint" />
          </mxGeometry>
        </mxCell>
        <mxCell id="EV_kONMlF-djutW4qRMt-11" value="" style="endArrow=none;html=1;rounded=0;" parent="1" source="EV_kONMlF-djutW4qRMt-6" target="7HfnvCUrbNojlMPrx9GS-23" edge="1">
          <mxGeometry relative="1" as="geometry">
            <mxPoint x="530" y="490" as="sourcePoint" />
            <mxPoint x="500" y="440" as="targetPoint" />
          </mxGeometry>
        </mxCell>
        <mxCell id="EV_kONMlF-djutW4qRMt-12" value="" style="endArrow=none;html=1;rounded=0;" parent="1" source="EV_kONMlF-djutW4qRMt-6" target="7HfnvCUrbNojlMPrx9GS-24" edge="1">
          <mxGeometry relative="1" as="geometry">
            <mxPoint x="340" y="440" as="sourcePoint" />
            <mxPoint x="500" y="440" as="targetPoint" />
          </mxGeometry>
        </mxCell>
        <mxCell id="EV_kONMlF-djutW4qRMt-13" value="" style="endArrow=none;html=1;rounded=0;" parent="1" source="EV_kONMlF-djutW4qRMt-6" target="7HfnvCUrbNojlMPrx9GS-25" edge="1">
          <mxGeometry relative="1" as="geometry">
            <mxPoint x="340" y="440" as="sourcePoint" />
            <mxPoint x="500" y="440" as="targetPoint" />
          </mxGeometry>
        </mxCell>
        <mxCell id="EV_kONMlF-djutW4qRMt-14" value="" style="endArrow=none;html=1;rounded=0;" parent="1" source="EV_kONMlF-djutW4qRMt-6" target="7HfnvCUrbNojlMPrx9GS-46" edge="1">
          <mxGeometry relative="1" as="geometry">
            <mxPoint x="340" y="440" as="sourcePoint" />
            <mxPoint x="500" y="440" as="targetPoint" />
          </mxGeometry>
        </mxCell>
        <mxCell id="EV_kONMlF-djutW4qRMt-15" value="" style="endArrow=none;html=1;rounded=0;" parent="1" edge="1">
          <mxGeometry relative="1" as="geometry">
            <mxPoint x="430" y="460" as="sourcePoint" />
            <mxPoint x="480" y="550" as="targetPoint" />
            <Array as="points">
              <mxPoint x="430" y="520" />
            </Array>
          </mxGeometry>
        </mxCell>
        <mxCell id="tomeXcjx3UgSiGNlNVZK-1" value="&lt;div&gt;password&lt;/div&gt;" style="ellipse;whiteSpace=wrap;html=1;align=center;" vertex="1" parent="1">
          <mxGeometry x="30" y="540" width="100" height="40" as="geometry" />
        </mxCell>
        <mxCell id="tomeXcjx3UgSiGNlNVZK-2" value="" style="endArrow=none;html=1;rounded=0;exitX=0.25;exitY=1;exitDx=0;exitDy=0;entryX=1;entryY=0;entryDx=0;entryDy=0;" edge="1" parent="1" source="7HfnvCUrbNojlMPrx9GS-21" target="tomeXcjx3UgSiGNlNVZK-1">
          <mxGeometry relative="1" as="geometry">
            <mxPoint x="196" y="520" as="sourcePoint" />
            <mxPoint x="204" y="550" as="targetPoint" />
          </mxGeometry>
        </mxCell>
      </root>
    </mxGraphModel>
  </diagram>
</mxfile>
